<mxfile host="app.diagrams.net" modified="2023-11-04T22:55:22.298Z" agent="Mozilla/5.0 (Windows NT 10.0; Win64; x64) AppleWebKit/537.36 (KHTML, like Gecko) Chrome/119.0.0.0 Safari/537.36" etag="gDuW7PapwxauBAiefEFV" version="22.0.8" type="device">
  <diagram name="Page-1" id="lve8_RTb-bpQcE_kqEQ_">
    <mxGraphModel dx="794" dy="454" grid="1" gridSize="10" guides="1" tooltips="1" connect="1" arrows="1" fold="1" page="1" pageScale="1" pageWidth="850" pageHeight="1100" math="0" shadow="0">
      <root>
        <mxCell id="0" />
        <mxCell id="1" parent="0" />
        <mxCell id="adu_AFQ6npNmDtMNd-h_-1" value="NFS Server&lt;br&gt;&lt;br&gt;10.0.0.162" style="whiteSpace=wrap;html=1;aspect=fixed;" vertex="1" parent="1">
          <mxGeometry x="390" y="70" width="80" height="80" as="geometry" />
        </mxCell>
        <mxCell id="adu_AFQ6npNmDtMNd-h_-2" value="" style="image;html=1;image=img/lib/clip_art/computers/Server_128x128.png" vertex="1" parent="1">
          <mxGeometry x="390" y="20" width="80" height="80" as="geometry" />
        </mxCell>
        <mxCell id="adu_AFQ6npNmDtMNd-h_-6" style="edgeStyle=orthogonalEdgeStyle;rounded=0;orthogonalLoop=1;jettySize=auto;html=1;" edge="1" parent="1" source="adu_AFQ6npNmDtMNd-h_-4" target="adu_AFQ6npNmDtMNd-h_-1">
          <mxGeometry relative="1" as="geometry" />
        </mxCell>
        <mxCell id="adu_AFQ6npNmDtMNd-h_-4" value="NFS Client&lt;br&gt;&lt;br&gt;10.0.0.55" style="whiteSpace=wrap;html=1;aspect=fixed;" vertex="1" parent="1">
          <mxGeometry x="390" y="230" width="80" height="80" as="geometry" />
        </mxCell>
        <mxCell id="adu_AFQ6npNmDtMNd-h_-3" value="" style="image;points=[];aspect=fixed;html=1;align=center;shadow=0;dashed=0;image=img/lib/allied_telesis/computer_and_terminals/Personal_Computer_with_Server.svg;" vertex="1" parent="1">
          <mxGeometry x="398.8" y="300" width="62.400000000000006" height="62.400000000000006" as="geometry" />
        </mxCell>
      </root>
    </mxGraphModel>
  </diagram>
</mxfile>
